<svg width="128" height="128" viewBox="0 0 128 128" fill="none" xmlns="http://www.w3.org/2000/svg">
<path fill-rule="evenodd" clip-rule="evenodd" d="M97 55.8159V64.1728C89.5327 64.1816 82.3739 67.0957 77.0934 72.2754C72.8319 76.4559 70.0748 81.8363 69.1647 87.6078H97V95.9646H32V87.6078H59.9845C59.0732 81.7977 56.3002 76.3807 52.011 72.1733C46.703 66.9666 39.5065 64.0372 32 64.0283V55.6543C38.7058 55.6589 45.2834 57.4573 51.0246 60.8564C56.7659 64.2555 61.4533 69.1263 64.5824 74.9443C67.707 69.1695 72.3752 64.3387 78.0862 60.9688C83.7972 57.599 90.3357 55.8175 97 55.8159Z" fill="white"/>
<path d="M64.5002 53.3866C70.2393 53.3866 74.8916 48.8229 74.8916 43.1933C74.8916 37.5637 70.2393 33 64.5002 33C58.7612 33 54.1089 37.5637 54.1089 43.1933C54.1089 48.8229 58.7612 53.3866 64.5002 53.3866V53.3866Z" fill="white"/>
</svg>
