<svg width="70" height="70" viewBox="0 0 70 70" fill="none" xmlns="http://www.w3.org/2000/svg">
<path fill-rule="evenodd" clip-rule="evenodd" d="M56 29.8485V35.2872C51.175 35.2929 46.5493 37.1894 43.1373 40.5603C40.3837 43.2809 38.6022 46.7825 38.0141 50.5385H56V55.9771H14V50.5385H32.0823C31.4935 46.7574 29.7017 43.232 26.9302 40.4938C23.5004 37.1054 18.8504 35.1989 14 35.1932V29.7434C18.333 29.7464 22.5831 30.9168 26.2928 33.1289C30.0026 35.341 33.0314 38.5109 35.0532 42.2972C37.0722 38.539 40.0886 35.3951 43.7788 33.2021C47.4689 31.009 51.6938 29.8496 56 29.8485Z" fill="#4E5AFF"/>
<path d="M35.0002 28.2675C38.7085 28.2675 41.7146 25.2975 41.7146 21.6338C41.7146 17.97 38.7085 15 35.0002 15C31.2919 15 28.2858 17.97 28.2858 21.6338C28.2858 25.2975 31.2919 28.2675 35.0002 28.2675V28.2675Z" fill="#4E5AFF"/>
</svg>
